<?xml version="1.0" encoding="utf-8"?>
<!-- Generator: Adobe Illustrator 19.2.1, SVG Export Plug-In . SVG Version: 6.00 Build 0)  -->
<svg version="1.1" id="Layer_1" xmlns="http://www.w3.org/2000/svg" xmlns:xlink="http://www.w3.org/1999/xlink" x="0px" y="0px"
	 viewBox="0 0 14 14" style="enable-background:new 0 0 14 14;" xml:space="preserve">
<style type="text/css">
	.st0{fill:#FFFFFF;}
	.st1{fill:#CCCCCC;}
	.st2{fill:#666666;}
</style>
<path class="st0" d="M12.4,13.5H1.6c-0.6,0-1.1-0.5-1.1-1.1V1.6C0.5,1,1,0.5,1.6,0.5h10.8c0.6,0,1.1,0.5,1.1,1.1v10.8
	C13.5,13,13,13.5,12.4,13.5z"/>
<path class="st1" d="M12,1c0.6,0,1,0.5,1,1v10c0,0.5-0.4,1-1,1H2c-0.6,0-1-0.5-1-1V2c0-0.5,0.4-1,1-1H12 M12,0H2C0.9,0,0,0.9,0,2v10
	c0,1.1,0.9,2,2,2h10c1.1,0,2-0.9,2-2V2C14,0.9,13.1,0,12,0L12,0z"/>
<polygon class="st2" points="10.7,2.7 5.5,7.9 3.3,5.6 1.5,7.3 5.5,11.3 12.5,4.4 "/>
</svg>
